<?xml version="1.0" encoding="UTF-8" standalone="no"?>
<svg width="89px" height="38px" viewBox="0 0 89 38" version="1.1" xmlns="http://www.w3.org/2000/svg" xmlns:xlink="http://www.w3.org/1999/xlink">
    <!-- Generator: Sketch 41.2 (35397) - http://www.bohemiancoding.com/sketch -->
    <title>Untitled-White</title>
    <desc>Created with Sketch.</desc>
    <defs></defs>
    <g id="Page-1" stroke="none" stroke-width="1" fill="none" fill-rule="evenodd">
        <g id="Homepage-Final" transform="translate(-169.000000, -158.000000)" fill="#EF4639">
            <g id="Untitled-White" transform="translate(169.000000, 158.000000)">
                <g id="Layer_1">
                    <g id="Group">
                        <path d="M63.5124638,13.3371014 C64.1573913,12.5373913 64.6991304,11.7376812 65.344058,11.0411594 C67.5110145,8.64202899 70.2455072,7.24898551 73.3669565,6.55246377 C74.9663768,6.19130435 76.5657971,6.06231884 78.1910145,6.11391304 C80.3063768,6.19130435 82.4217391,6.39768116 84.3565217,7.32637681 C86.8330435,8.51304348 88.3034783,10.4478261 88.6130435,13.1823188 C88.6904348,13.724058 88.6904348,14.2915942 88.7162319,14.8591304 C88.7162319,17.2582609 88.6904348,19.6831884 88.742029,22.0823188 C88.7678261,23.2173913 88.7162319,24.3524638 88.3808696,25.4617391 C87.6843478,27.6544928 86.2655072,29.2281159 84.1243478,30.002029 C81.106087,31.1113043 78.062029,31.1371014 75.0953623,29.8730435 C72.5414493,28.7895652 71.0968116,26.7515942 70.7356522,23.9913043 C70.4518841,21.9017391 70.7872464,19.9411594 72.1028986,18.2385507 C73.3153623,16.6649275 74.9663768,15.8136232 76.8495652,15.3750725 C79.8162319,14.7301449 83.3246377,15.1944928 84.666087,15.3750725 C84.7692754,13.2597101 84.2533333,11.9698551 82.7571014,11.1701449 C81.7510145,10.7057971 80.6417391,10.3962319 79.584058,10.2930435 C78.5521739,10.2156522 77.7266667,10.1898551 76.7205797,10.2414493 C73.5733333,10.3962319 70.7356522,11.3507246 68.4913043,13.6982609 C66.3243478,16.0715942 65.6536232,18.5223188 65.4472464,19.6315942 C65.3956522,19.9669565 65.1892754,22.5982609 65.1892754,23.7849275 C65.1892754,25.5133333 65.1634783,27.2417391 65.1892754,28.9701449 C65.2150725,30.0536232 64.5443478,30.6727536 63.5382609,30.775942 C63.0481159,30.8275362 62.5321739,30.7243478 62.0678261,30.5695652 C61.4744928,30.3631884 61.1391304,29.8730435 61.1133333,29.2281159 C61.1133333,29.0217391 61.0875362,28.8153623 61.0875362,28.6089855 C61.0875362,25.7713043 61.0617391,22.9336232 61.0875362,20.095942 C61.1391304,14.8591304 57.3211594,11.3507246 53.1936232,10.5252174 C51.9295652,10.2672464 50.6397101,10.3446377 49.3756522,10.3188406 L49.066087,10.3188406 L49.066087,10.6026087 C49.066087,11.4281159 49.0918841,12.2794203 49.0918841,13.1049275 C49.0918841,14.2142029 49.0918841,15.3492754 49.1176812,16.4585507 C49.1176812,18.8576812 49.1176812,21.2568116 49.1434783,23.655942 C49.1434783,24.0686957 49.1950725,24.4556522 49.2724638,24.8684058 C49.5046377,26.0550725 50.1237681,26.5968116 51.3362319,26.7515942 C52.4455072,26.9063768 53.5031884,26.7773913 54.5866667,26.5710145 C55.3605797,26.4162319 55.9797101,26.7 56.3150725,27.4223188 C56.5730435,27.9898551 56.7536232,28.5831884 56.6246377,29.2281159 C56.4956522,29.8730435 56.1344928,30.3889855 55.4895652,30.5437681 C53.1678261,31.1113043 50.846087,31.1886957 48.6017391,30.1826087 C46.6153623,29.2797101 45.5576812,27.6286957 45.2481159,25.5133333 C45.0933333,24.5072464 45.0933333,23.4753623 45.0675362,22.4434783 C45.0417391,20.9472464 45.0417391,19.4510145 45.0417391,17.9547826 C45.015942,15.5556522 44.9901449,13.1565217 44.9901449,10.7573913 L44.9901449,10.3446377 L44.5773913,10.3446377 C43.9324638,10.3704348 43.3133333,10.3446377 42.6684058,10.3446377 C41.4817391,10.3446377 40.9915942,9.93188406 40.7594203,8.77101449 C40.6304348,8.12608696 40.7336232,7.48115942 41.0947826,6.91362319 C41.3785507,6.50086957 41.7655072,6.26869565 42.2814493,6.26869565 L44.5515942,6.26869565 L44.9385507,6.26869565 L44.9385507,5.88173913 C44.9127536,4.69507246 44.8869565,3.5084058 44.8869565,2.29594203 C44.8869565,0.877101449 45.8414493,0.0515942029 47.2602899,0.283768116 C47.3634783,0.309565217 47.4924638,0.335362319 47.5956522,0.335362319 C48.4985507,0.515942029 49.0144928,1.13507246 49.0144928,2.03797101 L49.0144928,5.83014493 L49.0144928,6.24289855 L49.4272464,6.24289855 C50.1237681,6.21710145 50.8202899,6.21710145 51.5168116,6.24289855 C56.5730435,6.42347826 60.4426087,8.64202899 63.2028986,12.8727536 C63.306087,13.0275362 63.4092754,13.1823188 63.5124638,13.3371014 Z M84.666087,21.7469565 L84.6402899,21.7469565 C84.6402899,21.2052174 84.666087,20.1475362 84.6402899,19.6315942 C84.4597101,19.58 82.1637681,19.0898551 79.9968116,19.1414493 C79.3776812,19.1414493 78.7585507,19.1930435 78.1136232,19.2962319 C76.3078261,19.6057971 74.9405797,20.5086957 74.7342029,22.3918841 C74.5794203,23.8107246 75.0695652,25.3585507 76.5915942,26.0550725 C78.6037681,26.957971 80.6417391,26.9321739 82.6797101,26.1582609 C83.7631884,25.7455072 84.4081159,24.8942029 84.5628986,23.7333333 C84.6402899,23.0626087 84.6402899,22.3918841 84.666087,21.7469565 Z" id="Shape"></path>
                        <path d="M12.8727536,22.6498551 C13.233913,21.7469565 13.5950725,20.844058 13.9304348,19.9411594 C14.7301449,17.7484058 15.5556522,15.5814493 16.7423188,13.5434783 C18.0321739,11.3507246 19.6057971,9.39014493 21.8243478,8.04869565 C23.5269565,6.99101449 25.3843478,6.42347826 27.3707246,6.24289855 C28.3252174,6.16550725 29.2797101,6.08811594 30.2084058,6.11391304 C32.3495652,6.16550725 34.4391304,6.50086957 36.3481159,7.58434783 C38.5666667,8.8484058 39.8307246,10.7573913 40.1402899,13.3113043 C40.1918841,13.724058 40.2176812,14.1368116 40.2176812,14.5495652 C40.2176812,17.4904348 40.2434783,20.4055072 40.2434783,23.3463768 C40.2434783,24.662029 39.9855072,25.926087 39.3663768,27.0611594 C38.5408696,28.5573913 37.2768116,29.5376812 35.6773913,30.0794203 C32.9428986,30.9823188 30.1310145,31.1113043 27.3449275,30.26 C24.0428986,29.253913 22.0049275,26.3130435 22.133913,22.8562319 C22.1855072,21.2568116 22.5466667,19.7347826 23.5011594,18.4191304 C24.6362319,16.8197101 26.2614493,15.9426087 28.1446377,15.4524638 C29.9246377,14.9881159 31.7562319,14.9881159 33.5878261,15.1171014 C34.4391304,15.1686957 35.1614493,15.246087 36.1417391,15.3750725 C36.2191304,13.5950725 35.8837681,12.1762319 34.6971014,11.3249275 C33.8457971,10.7057971 32.8655072,10.422029 31.8336232,10.2930435 C30.0794203,10.0866667 28.3252174,10.0866667 26.5710145,10.4478261 C24.2234783,10.9637681 22.4692754,12.3568116 21.102029,14.2915942 C19.7089855,16.2521739 18.8318841,18.4965217 17.9805797,20.7408696 C16.5875362,24.404058 15.1428986,28.0672464 13.2081159,31.4982609 C12.3052174,33.0718841 11.2475362,34.5423188 9.85449275,35.7547826 C8.33246377,37.0704348 6.57826087,37.7411594 4.59188406,37.8185507 C3.84376812,37.8443478 3.17304348,37.6121739 2.78608696,36.9414493 C2.37333333,36.2191304 2.19275362,35.4194203 2.60550725,34.6197101 C2.94086957,33.9231884 3.6115942,33.7426087 4.30811594,33.7168116 C5.64956522,33.6394203 6.70724638,33.0718841 7.63594203,32.1689855 C8.9515942,30.9049275 9.82869565,29.3313043 10.6284058,27.706087 C10.68,27.6286957 10.6542029,27.473913 10.6026087,27.3965217 C8.69362319,23.5785507 6.81043478,19.7347826 4.84985507,15.9168116 C3.99855072,14.24 3.04405797,12.6405797 2.08956522,11.0153623 C1.8057971,10.5510145 1.36724638,10.1382609 0.928695652,9.77710145 C0.0515942029,9.00318841 -0.18057971,8.07449275 0.257971014,7.12 C0.748115942,6.11391304 1.96057971,5.72695652 2.99246377,6.26869565 C3.97275362,6.78463768 4.74666667,7.55855072 5.3915942,8.46144928 C6.50086957,10.0092754 7.35217391,11.7118841 8.20347826,13.4144928 C9.62231884,16.277971 11.0411594,19.1414493 12.46,22.0049275 C12.5631884,22.2113043 12.6921739,22.4176812 12.7953623,22.6498551 C12.7953623,22.6498551 12.8211594,22.6498551 12.8727536,22.6498551 Z M36.1417391,21.8501449 L36.1417391,21.8501449 L36.1417391,20.1991304 L36.1417391,19.6057971 C36.0127536,19.58 35.2130435,19.3994203 34.4907246,19.2962319 C32.7623188,19.064058 31.033913,18.9866667 29.3055072,19.3478261 C27.5255072,19.7089855 26.4678261,20.6892754 26.2356522,22.3402899 C26.0034783,24.0944928 26.6226087,25.693913 28.6089855,26.3130435 C29.1765217,26.4936232 29.7956522,26.5968116 30.3889855,26.6484058 C31.7304348,26.7515942 33.0718841,26.6484058 34.335942,26.1582609 C35.5484058,25.693913 36.115942,24.8168116 36.1417391,23.5269565 C36.1675362,22.9852174 36.1417391,22.4176812 36.1417391,21.8501449 Z" id="Shape"></path>
                    </g>
                </g>
            </g>
        </g>
    </g>
</svg>