<?xml version="1.0" encoding="UTF-8" standalone="no"?>
<svg width="94px" height="34px" viewBox="0 0 94 34" version="1.1" xmlns="http://www.w3.org/2000/svg" xmlns:xlink="http://www.w3.org/1999/xlink">
    <!-- Generator: Sketch 41.2 (35397) - http://www.bohemiancoding.com/sketch -->
    <title>yatra_new_Logo (1)</title>
    <desc>Created with Sketch.</desc>
    <defs></defs>
    <g id="Page-1" stroke="none" stroke-width="1" fill="none" fill-rule="evenodd">
        <g id="Homepage-Final" transform="translate(-164.000000, -87.000000)">
            <g id="yatra_new_Logo-(1)" transform="translate(164.000000, 87.000000)">
                <g id="Layer_1">
                    <polygon id="Shape" fill="#00AFB4" points="45.6279373 10.7310705 46.1279373 10.2310705 45.6279373 10.2310705"></polygon>
                    <path d="M12.4425587,29.0117493 C10.3798956,29.7127937 8.2310705,30.2088773 6.10443864,30.618799 C7.96956506,31.9537075 10.1579962,32.7650723 12.4425587,32.9686684 C12.8224543,33 13.2062663,33.0195822 13.5939948,33.0195822 C20.7112903,33.0080657 26.4761079,27.237408 26.4804178,20.1201044 C26.4845345,18.6751574 26.2430639,17.2400182 25.7663185,15.8759791 C23.2950392,23.5182768 18.1840731,27.0574413 12.4425587,29.0117493 Z" id="Shape" fill="#2195B9"></path>
                    <path d="M17.8642298,7.9464752 C16.4930767,7.45867404 15.0493191,7.20620406 13.5939948,7.1997389 C13.2023499,7.1997389 12.8237598,7.22062663 12.4425587,7.25587467 C7.18934045,7.72903768 2.75353575,11.3530236 1.24224976,16.4063592 C-0.269036227,21.4596947 1.44875491,26.9240182 5.57963446,30.2036554 C8.16057441,29.2767624 10.4856397,28.1383812 12.4425587,26.729765 C17.8289817,22.8655352 20.4281984,16.9765013 17.8642298,7.9464752 Z" id="Shape" fill="#2195B9"></path>
                    <polygon id="Shape" fill="#2195B9" points="45.6279373 10.6436031 45.6279373 10.2310705 45.5587467 10.2310705 42.654047 10.2310705 38.9060052 21.3877285 38.7963446 21.691906 38.6592689 22.0483029 38.6044386 22.2689295 38.5287206 22.1044386 38.4151436 21.7467363 38.3028721 21.4151436 34.4490862 10.2310705 31.2219321 10.2310705 37.0652742 26.7584856 37.0091384 26.9255875 36.8694517 27.2819843 36.7584856 27.6396867 36.6436031 27.9960836 36.5143603 28.3577023 36.3746736 28.6879896 36.2375979 29.0182768 36.0691906 29.3224543 35.9086162 29.5992167 35.7127937 29.845953 35.5221932 30.0639687 35.3028721 30.229765 35.0770235 30.3668407 34.8315927 30.4804178 34.5287206 30.535248 34.1997389 30.5600522 34.0874674 30.5600522 33.9490862 30.5600522 33.8642298 30.535248 33.7558747 30.535248 33.6488251 30.5065274 33.5117493 30.4477807 33.3420366 30.3942559 32.5182768 30.1227154 32.2167102 32.9882507 32.9908616 33.1488251 33.2349869 33.1788512 33.4830287 33.232376 33.6762402 33.2610966 33.8642298 33.2885117 34.0613577 33.3146214 34.2532637 33.3146214 34.4490862 33.3146214 35.0248042 33.2885117 35.5469974 33.2062663 36.0691906 33.04047 36.5143603 32.8420366 36.9556136 32.5979112 37.308094 32.3224543 37.6710183 31.9934726 37.9751958 31.6331593 38.2467363 31.2467363 38.4686684 30.8616188 38.6853786 30.4477807 38.9060052 30.0391645 39.0744125 29.5992167 39.2389034 29.1579634 39.4073107 28.7127937 39.5691906 28.2754569 45.5587467 10.845953"></polygon>
                    <path d="M93.0913838,25.9060052 L93.0913838,25.3537859 L93.0665796,24.8041775 L93.0665796,24.5287206 L93.037859,24.2519582 L93.037859,23.7023499 L93.0091384,23.4255875 L93.0091384,22.2989556 L92.9804178,22.0195822 L92.9804178,20.8916449 L92.9543081,20.6174935 L92.9543081,19.2375979 L92.9281984,18.1070496 L92.9281984,16.8746736 L92.8994778,16.4830287 L92.8994778,16.1266319 L92.8707572,15.7976501 L92.8707572,15.4947781 L92.8420366,15.2167102 L92.8198433,14.9451697 L92.7885117,14.694517 L92.7624021,14.4477807 L92.7036554,14.229765 L92.6801567,14.0052219 L92.6253264,13.7872063 L92.54047,13.5913838 L92.4882507,13.4007833 L92.4020888,13.2088773 L92.3211488,13.0143603 L92.1553525,12.6853786 L91.964752,12.3537859 L91.7441253,12.0221932 L91.4895561,11.7480418 L91.2206266,11.4712794 L90.9412533,11.2206266 L90.616188,11.0039164 L90.2819843,10.7859008 L89.9530026,10.6214099 L89.5613577,10.4582245 L89.2010444,10.3446475 L88.7872063,10.2349869 L88.3733681,10.1501305 L87.9308094,10.0966057 L87.4908616,10.0417755 L86.4020888,10.0417755 L86.0966057,10.0691906 L85.7610966,10.0966057 L85.4321149,10.1501305 L85.1344648,10.1801567 L84.8041775,10.2349869 L84.497389,10.3185379 L84.1697128,10.3746736 L83.8694517,10.4582245 L83.5652742,10.5417755 L83.2584856,10.6488251 L82.926893,10.732376 L82.6553525,10.8629243 L82.348564,10.9738903 L81.7493473,11.2180157 L81.691906,14.5535248 L82.8198433,13.8942559 L83.1266319,13.7284595 L83.3968668,13.5887728 L83.6736292,13.4582245 L83.9229765,13.348564 L84.1710183,13.2349869 L84.4164491,13.1553525 L84.6657963,13.0718016 L84.8851175,12.9895561 L85.1370757,12.9347258 L85.3550914,12.8798956 L85.5744125,12.8524804 L85.8250653,12.8224543 L86.0443864,12.7976501 L87.0548303,12.7976501 L87.4986945,12.8524804 L87.9125326,12.9660574 L88.2741514,13.0718016 L88.5718016,13.2349869 L88.8263708,13.4020888 L89.0417755,13.6227154 L89.2362924,13.843342 L89.4033943,14.1201044 L89.5678851,14.4255875 L89.6762402,14.7558747 L89.7872063,15.1383812 L89.8368146,15.5300261 L89.9007833,15.9725849 L89.9255875,16.3276762 L89.7049608,16.3276762 L89.537859,16.3028721 L88,16.3028721 L87.497389,16.3276762 L87.0052219,16.383812 L86.5391645,16.4386423 L86.5065274,16.4386423 L86.497389,16.4386423 L86.0966057,16.4895561 L85.654047,16.5456919 L85.2167102,16.6318538 L84.8250653,16.7415144 L84.4086162,16.8198433 L84.0548303,16.9334204 L83.6631854,17.0639687 L83.3355091,17.2036554 L83.0039164,17.343342 L82.6684073,17.5052219 L82.3707572,17.6684073 L82.0939948,17.8629243 L81.8146214,18.0561358 L81.5691906,18.2806789 L81.3237598,18.497389 L81.0966057,18.7206266 L80.9190601,18.9634465 L80.732376,19.2127937 L80.5639687,19.4843342 L80.3968668,19.7597911 L80.2859008,20.0365535 L80.1762402,20.3368146 L80.0979112,20.6396867 L80.0665796,20.6644909 L80.0117493,20.9399478 L79.9582245,21.2715405 L79.9281984,21.6018277 L79.9281984,21.9308094 L79.9582245,22.4869452 L80.0417755,23.0091384 L80.0665796,23.1684073 L80.1501305,23.5013055 L80.3446475,23.9986945 L80.5626632,24.4386423 L80.8120104,24.8537859 L81.1409922,25.2389034 L81.4725849,25.5966057 L81.8577023,25.8981723 L82.3002611,26.1749347 L82.7689295,26.421671 L83.2349869,26.6148825 L83.7571802,26.7454308 L84.308094,26.8590078 L84.8577023,26.9386423 L85.4334204,26.9660574 L85.9295039,26.9386423 L86.4020888,26.9112272 L86.5065274,26.9112272 L86.8655352,26.8577023 L87.310705,26.7754569 L87.7232376,26.6631854 L88.1057441,26.5248042 L88.497389,26.3603133 L88.8798956,26.1684073 L89.2415144,25.9464752 L89.573107,25.6723238 L89.9060052,25.4007833 L90.2049608,25.0939948 L90.2049608,25.8642298 L90.2310705,26.0313316 L90.2584856,26.7193211 L93.1462141,26.7193211 L93.0913838,25.9060052 Z M89.9817232,19.0456919 L89.9543081,19.5966057 L89.9255875,20.118799 L89.8381201,20.6409922 L89.7597911,21.1344648 L89.6292428,21.6044386 L89.464752,22.0443864 L89.270235,22.4360313 L89.0469974,22.8276762 L88.772846,23.1579634 L88.4986945,23.45953 L88.1357702,23.7088773 L87.7793734,23.9295039 L87.3381201,24.1227154 L86.8694517,24.232376 L86.5104439,24.2845953 L86.5013055,24.2924282 L86.3511749,24.3146214 L85.7428198,24.3407311 L85.4360313,24.3407311 L85.1383812,24.3146214 L84.8603133,24.2584856 L84.6109661,24.1762402 L84.3655352,24.0691906 L84.1449086,23.9556136 L83.9477807,23.8067885 L83.7545692,23.6671018 L83.5887728,23.502611 L83.4464752,23.3381201 L83.3159269,23.1462141 L83.2075718,22.9530026 L83.1279373,22.732376 L83.0704961,22.5130548 L83.0417755,22.2937337 L83.0156658,22.0430809 L83.0704961,21.5496084 L83.1788512,21.1083551 L83.3733681,20.7493473 L83.6148825,20.4177546 L83.921671,20.151436 L84.2793734,19.8785901 L84.6932115,19.654047 L85.1357702,19.4869452 L85.6579634,19.3250653 L86.1801567,19.194517 L86.497389,19.1409922 L86.5065274,19.1409922 L86.7023499,19.1109661 L87.2545692,19.0274151 L87.7767624,19.0013055 L88.2989556,18.9738903 L88.8211488,18.9464752 L89.5900783,18.9464752 L89.727154,18.9738903 L89.9765013,18.9738903 L89.9817232,19.0456919 Z" id="Shape" fill="#2195B9"></path>
                    <path d="M58.6618799,25.6266319 L58.6618799,25.3537859 L58.6305483,24.8041775 L58.6305483,24.5287206 L58.6044386,24.2519582 L58.6044386,23.7023499 L58.575718,23.4255875 L58.575718,22.2989556 L58.5469974,22.0195822 L58.5469974,20.8916449 L58.5221932,20.6174935 L58.5221932,19.2375979 L58.4908616,18.1070496 L58.4908616,16.8746736 L58.464752,16.4830287 L58.464752,16.1266319 L58.4399478,15.7976501 L58.4399478,15.4947781 L58.4112272,15.2167102 L58.3825065,14.9451697 L58.3563969,14.694517 L58.3342037,14.4464752 L58.2793734,14.2284595 L58.2506527,14.0039164 L58.1932115,13.7859008 L58.1096606,13.5900783 L58.0600522,13.3994778 L57.9765013,13.2075718 L57.8916449,13.0130548 L57.7284595,12.6840731 L57.535248,12.3524804 L57.3133159,12.0208877 L57.0665796,11.7467363 L56.7898172,11.4699739 L56.5182768,11.2193211 L56.1840731,11.002611 L55.8537859,10.7845953 L55.5156658,10.6214099 L55.1331593,10.4582245 L54.7754569,10.3446475 L54.3616188,10.2349869 L53.9503916,10.1501305 L53.5039164,10.0992167 L53.0626632,10.0443864 L51.9634465,10.0443864 L51.6579634,10.0718016 L51.3263708,10.0992167 L51.0013055,10.1527415 L50.694517,10.1827676 L50.3707572,10.229765 L50.0626632,10.3133159 L49.7362924,10.3694517 L49.4321149,10.4530026 L49.1279373,10.5365535 L48.8263708,10.6436031 L48.4986945,10.727154 L48.2219321,10.8577023 L47.9151436,10.9686684 L47.3093995,11.2127937 L47.2532637,14.5483029 L48.386423,13.8890339 L48.691906,13.7232376 L48.9634465,13.5835509 L49.2389034,13.4530026 L49.4869452,13.343342 L49.7362924,13.229765 L49.9817232,13.1501305 L50.2310705,13.0665796 L50.4516971,12.9843342 L50.7010444,12.9295039 L50.9229765,12.8746736 L51.1409922,12.8472585 L51.383812,12.8172324 L51.6109661,12.7924282 L52.6279373,12.7924282 L53.0691906,12.8472585 L53.4791123,12.9608355 L53.8407311,13.0665796 L54.1436031,13.229765 L54.3890339,13.3968668 L54.613577,13.6174935 L54.8041775,13.8381201 L54.9673629,14.1148825 L55.1357702,14.4203655 L55.2441253,14.7506527 L55.3550914,15.1331593 L55.4086162,15.5248042 L55.4660574,15.9673629 L55.4947781,16.3224543 L55.2767624,16.3224543 L55.1083551,16.2976501 L53.5639687,16.2976501 L53.0678851,16.3224543 L52.5704961,16.3785901 L52.1018277,16.4334204 L52.0744125,16.4334204 L52.0639687,16.4334204 L51.6631854,16.4843342 L51.2206266,16.54047 L50.7819843,16.6266319 L50.3994778,16.7362924 L49.9817232,16.8146214 L49.6279373,16.9281984 L49.2362924,17.0587467 L48.9020888,17.1984334 L48.5770235,17.3381201 L48.2454308,17.5 L47.9425587,17.6710183 L47.6657963,17.8655352 L47.386423,18.0587467 L47.1449086,18.2832898 L46.8955614,18.5 L46.6775457,18.7154047 L46.4830287,18.95953 L46.2885117,19.2088773 L46.1253264,19.4804178 L45.964752,19.7597911 L45.8511749,20.0365535 L45.7402089,20.3368146 L45.6579634,20.6396867 L45.6292428,20.6644909 L45.575718,20.9399478 L45.5600522,21.0248042 L45.5234987,21.2715405 L45.4960836,21.6018277 L45.4960836,21.9308094 L45.5234987,22.4869452 L45.5600522,22.7480418 L45.6005222,23.0091384 L45.6292428,23.1684073 L45.7140992,23.5013055 L45.9086162,23.9986945 L46.1266319,24.4386423 L46.3759791,24.8537859 L46.7062663,25.2389034 L47.0391645,25.5966057 L47.4229765,25.8981723 L47.8681462,26.1749347 L48.3328982,26.421671 L48.8015666,26.6148825 L49.3237598,26.7454308 L49.8746736,26.8590078 L50.424282,26.9386423 L51.0117493,26.9660574 L51.5013055,26.9386423 L51.9751958,26.9112272 L52.0809399,26.9112272 L52.4399478,26.8577023 L52.881201,26.7754569 L53.2976501,26.6631854 L53.6801567,26.5248042 L54.0718016,26.3603133 L54.4543081,26.1684073 L54.8120104,25.9464752 L55.1436031,25.6723238 L55.4738903,25.4007833 L55.7793734,25.0939948 L55.7793734,25.8642298 L55.8067885,26.0313316 L55.8355091,26.7193211 L58.7219321,26.7193211 L58.6723238,25.8929504 L58.6618799,25.6266319 Z M55.5456919,19.0456919 L55.5156658,19.5966057 L55.4934726,20.118799 L55.4060052,20.6409922 L55.3250653,21.1344648 L55.194517,21.6044386 L55.0274151,22.0443864 L54.8368146,22.4360313 L54.618799,22.8276762 L54.3446475,23.1579634 L54.0704961,23.45953 L53.7101828,23.7088773 L53.3524804,23.9295039 L52.9112272,24.1227154 L52.4425587,24.232376 L52.0835509,24.2845953 L52.073107,24.2924282 L51.9177546,24.3146214 L51.310705,24.3407311 L51.0143603,24.3407311 L50.7075718,24.3146214 L50.426893,24.2584856 L50.1853786,24.1762402 L49.9399478,24.0691906 L49.7180157,23.9556136 L49.5156658,23.8067885 L49.3185379,23.6762402 L49.1579634,23.5117493 L49.0208877,23.3472585 L48.8785901,23.154047 L48.767624,22.9608355 L48.6906005,22.7402089 L48.6279373,22.5208877 L48.6005222,22.3015666 L48.578329,22.0509138 L48.6279373,21.5574413 L48.7428198,21.116188 L48.9360313,20.7571802 L49.1866841,20.4255875 L49.4856397,20.151436 L49.8420366,19.8785901 L50.2597911,19.654047 L50.6997389,19.4869452 L51.2219321,19.3250653 L51.7441253,19.194517 L52.0626632,19.1409922 L52.073107,19.1409922 L52.270235,19.1109661 L52.8198433,19.0274151 L53.3420366,19.0013055 L53.8642298,18.9738903 L54.386423,18.9464752 L55.1605744,18.9464752 L55.2989556,18.9738903 L55.5456919,18.9738903 L55.5456919,19.0456919 Z" id="Shape" fill="#2195B9"></path>
                    <polygon id="Shape" fill="#2195B9" points="78.8224543 10.2062663 78.6605744 10.1749347 78.4921671 10.1462141 78.3263708 10.1201044 78.1906005 10.1201044 78.0234987 10.0926893 77.8590078 10.0926893 77.3903394 10.1201044 76.9530026 10.2062663 76.5104439 10.3133159 76.0979112 10.4791123 75.7088773 10.6736292 75.3524804 10.8916449 75.0195822 11.1422977 74.7219321 11.4425587 74.4438642 11.7467363 74.194517 12.075718 74.1370757 12.1331593 74.1370757 11.9947781 74.1370757 11.7989556 74.1370757 11.5822454 74.1370757 11.3877285 74.1370757 11.1710183 74.1096606 10.9490862 74.1096606 10.2310705 71.1697128 10.2310705 71.2206266 11.1710183 71.2519582 11.5535248 71.272846 11.9399478 71.272846 12.3237598 71.3002611 12.7101828 71.3342037 13.0992167 71.3342037 13.4817232 71.3577023 13.8668407 71.3577023 14.2545692 71.3577023 14.6409922 71.3825065 15.0522193 71.3825065 15.4386423 71.3825065 15.8224543 71.3825065 16.2088773 71.3825065 16.5953003 71.3825065 16.9830287 71.3825065 26.7310705 74.4164491 26.7310705 74.4164491 17.5039164 74.4438642 17.1148825 74.5261097 16.7010444 74.6109661 16.2937337 74.7219321 15.8759791 74.8550914 15.4934726 75.0195822 15.1344648 75.2140992 14.7767624 75.4086162 14.4725849 75.6553525 14.1723238 75.9060052 13.9255875 76.1762402 13.6762402 76.4843342 13.5104439 76.8146214 13.3446475 77.1697128 13.2310705 77.5796345 13.151436 78.0234987 13.1227154 78.1383812 13.1227154 78.2480418 13.151436 78.3785901 13.151436 78.464752 13.151436 78.5744125 13.1788512 78.7114883 13.2075718 78.8524804 13.2310705 79.6749347 13.5104439 79.6749347 10.3942559 79.0443864 10.2597911"></polygon>
                    <polygon id="Shape" fill="#2195B9" points="68.9347258 23.9229765 68.7402089 23.9791123 68.578329 24.0052219 68.4386423 24.0339426 68.3015666 24.0626632 68.1553525 24.0900783 68.0522193 24.0900783 67.8903394 24.0900783 67.5561358 24.0900783 67.2806789 24.0339426 67.0339426 23.9490862 66.810705 23.8668407 66.6488251 23.7597911 66.4804178 23.6201044 66.3446475 23.4530026 66.2336815 23.2872063 66.2010444 23.2036554 66.151436 23.1253264 66.1253264 23.0143603 66.1005222 22.9321149 66.0691906 22.8198433 66.04047 22.7088773 66.0143603 22.5704961 66.0143603 22.4086162 65.9843342 22.2415144 65.9569191 22.0195822 65.9569191 21.8015666 65.9569191 21.5248042 65.9334204 21.2219321 65.9334204 20.8655352 65.9334204 20.4804178 65.9334204 20.0417755 65.9334204 12.9308094 69.5926893 12.9308094 69.5926893 10.2872063 65.9334204 10.2872063 65.9334204 5.51827676 62.95953 6.54046997 62.95953 10.2872063 59.7637076 10.2872063 59.7637076 12.9308094 62.95953 12.9308094 62.95953 21.4986945 62.95953 22.0483029 62.9830287 22.5704961 63.0365535 23.0665796 63.1214099 23.5626632 63.2336815 24.0339426 63.3707572 24.4738903 63.5665796 24.9151436 63.7859008 25.2976501 64.0874674 25.6579634 64.4190601 25.95953 64.8015666 26.2375979 65.2467363 26.4556136 65.7140992 26.6227154 66.2637076 26.7584856 66.8420366 26.8146214 67.4451697 26.8394256 67.7506527 26.8394256 67.997389 26.8394256 68.2180157 26.8146214 68.4673629 26.7898172 68.7127937 26.7310705 68.9895561 26.6762402 69.2362924 26.6227154 69.9516971 26.4295039 69.7859008 23.5913838"></polygon>
                    <path d="M20.921671,4.36422977 C20.9751958,4.37206266 21.0221932,4.38250653 21.075718,4.39033943 C22.8668407,4.71932115 24.0953003,5.66710183 24.2832898,6.95561358 C24.9686684,5.7689295 25.6318538,4.83289817 27.535248,4.61357702 C26.2976501,4.11879896 25.3289817,4.47650131 24.3368146,5.29895561 C23.9125326,4.25456919 22.7010444,3.8381201 21.073107,4.31723238 C21.0221932,4.33159269 20.9738903,4.35509138 20.921671,4.36422977 Z" id="Shape" fill="#F0830A"></path>
                    <path d="M23.3472585,10.3146214 C23.308094,9.07049608 22.497389,8.06527415 21.075718,7.54177546 C20.3614938,7.29397878 19.6122963,7.16176747 18.8563969,7.15013055 C19.6779143,7.58882148 20.4265558,8.15206414 21.075718,8.81984334 C22.1697128,9.98694517 22.6814621,11.3368146 22.4099217,12.689295 C24.035248,11.2845953 25.4960836,10.2924282 28.3629243,10.9804178 C26.8172324,9.5770235 25.2454308,9.60052219 23.3472585,10.3146214 Z" id="Shape" fill="#F0830A"></path>
                    <path d="M21.075718,1.05874674 C21.1240209,1.03263708 21.1710183,1.00522193 21.227154,0.977806789 L21.075718,0.977806789 C19.4882507,1.03002611 18.5861619,1.87467363 17.8642298,3.26109661 C16.8498695,2.21671018 15.1671018,2.32637076 13.4608355,3.75718016 C15.7467363,3.23498695 17.7036554,3.72976501 18.5522193,5.19321149 C18.7689295,3.52349869 19.113577,2.17101828 21.075718,1.05874674 Z" id="Shape" fill="#F0830A"></path>
                    <path d="M27.0913838,2.49347258 C27.2859008,1.80548303 26.8172324,1.08616188 25.770235,0.701044386 C26.5691906,1.58224543 26.845953,2.54569191 26.4308094,3.28851175 C27.227154,2.95691906 27.9177546,2.76631854 28.9112272,3.37336815 C28.4934726,2.65796345 27.8916449,2.46344648 27.0913838,2.49347258 Z" id="Shape" fill="#F0830A"></path>
                    <path d="M76.6740031,33.4325015 C76.6740031,33.3588345 76.6874613,33.2894185 76.7143781,33.2242515 C76.7412949,33.1590845 76.7781278,33.1024184 76.8248781,33.0542515 C76.8716283,33.0060846 76.9275861,32.967835 76.9927531,32.9395015 C77.05792,32.9111681 77.127336,32.8970015 77.2010031,32.8970015 C77.2746701,32.8970015 77.3440861,32.9111681 77.4092531,32.9395015 C77.47442,32.967835 77.5310861,33.0060846 77.5792531,33.0542515 C77.62742,33.1024184 77.6649613,33.1590845 77.6918781,33.2242515 C77.7187949,33.2894185 77.7322531,33.3588345 77.7322531,33.4325015 C77.7322531,33.5090019 77.7187949,33.5791262 77.6918781,33.6428765 C77.6649613,33.7066268 77.62742,33.7625846 77.5792531,33.8107515 C77.5310861,33.8589184 77.47442,33.8964597 77.4092531,33.9233765 C77.3440861,33.9502933 77.2746701,33.9637515 77.2010031,33.9637515 C77.127336,33.9637515 77.05792,33.9502933 76.9927531,33.9233765 C76.9275861,33.8964597 76.8716283,33.8589184 76.8248781,33.8107515 C76.7781278,33.7625846 76.7412949,33.7066268 76.7143781,33.6428765 C76.6874613,33.5791262 76.6740031,33.5090019 76.6740031,33.4325015 Z M81.6592531,30.3597515 C81.6365863,30.3909183 81.6139198,30.4150014 81.5912531,30.4320015 C81.5685863,30.4490016 81.5360033,30.4575015 81.4935031,30.4575015 C81.4510028,30.4575015 81.4049616,30.4397934 81.3553781,30.4043765 C81.3057945,30.3689597 81.2427534,30.3300017 81.1662531,30.2875015 C81.0897527,30.2450013 80.9969619,30.2060434 80.8878781,30.1706265 C80.7787942,30.1352097 80.6449205,30.1175015 80.4862531,30.1175015 C80.2765853,30.1175015 80.0910039,30.1550428 79.9295031,30.2301265 C79.7680022,30.3052102 79.6327119,30.4135842 79.5236281,30.5552515 C79.4145442,30.6969189 79.3323783,30.8683339 79.2771281,31.0695015 C79.2218778,31.2706692 79.1942531,31.4959169 79.1942531,31.7452515 C79.1942531,32.0059195 79.2240028,32.2375422 79.2835031,32.4401265 C79.3430033,32.6427109 79.4265858,32.8127092 79.5342531,32.9501265 C79.6419203,33.0875439 79.7729606,33.1923762 79.9273781,33.2646265 C80.0817955,33.3368769 80.2553354,33.3730015 80.4480031,33.3730015 C80.6321706,33.3730015 80.7837525,33.3510434 80.9027531,33.3071265 C81.0217536,33.2632096 81.1209193,33.2143351 81.2002531,33.1605015 C81.2795868,33.1066679 81.3447528,33.0577934 81.3957531,33.0138765 C81.4467533,32.9699596 81.4977528,32.9480015 81.5487531,32.9480015 C81.61392,32.9480015 81.6620862,32.9720846 81.6932531,33.0202515 L81.9057531,33.2965015 C81.7187521,33.5260027 81.4850045,33.693876 81.2045031,33.8001265 C80.9240016,33.9063771 80.6279213,33.9595015 80.3162531,33.9595015 C80.047085,33.9595015 79.7970459,33.9099187 79.5661281,33.8107515 C79.3352102,33.7115844 79.1347539,33.5677941 78.9647531,33.3793765 C78.7947522,33.1909589 78.6608785,32.9593362 78.5631281,32.6845015 C78.4653776,32.4096668 78.4165031,32.0965866 78.4165031,31.7452515 C78.4165031,31.4250833 78.4611276,31.1290029 78.5503781,30.8570015 C78.6396285,30.5850002 78.7699605,30.3505442 78.9413781,30.1536265 C79.1127956,29.9567089 79.3245851,29.8030021 79.5767531,29.6925015 C79.828921,29.582001 80.1179181,29.5267515 80.4437531,29.5267515 C80.7440879,29.5267515 81.0104186,29.575626 81.2427531,29.6733765 C81.4750875,29.771127 81.6805022,29.9092506 81.8590031,30.0877515 L81.6592531,30.3597515 Z M84.4345031,29.5267515 C84.7490046,29.5267515 85.0330435,29.5791677 85.2866281,29.6840015 C85.5402127,29.7888354 85.7555438,29.9375839 85.9326281,30.1302515 C86.1097123,30.3229192 86.2457109,30.5559585 86.3406281,30.8293765 C86.4355452,31.1027946 86.4830031,31.4080832 86.4830031,31.7452515 C86.4830031,32.0852532 86.4355452,32.3912502 86.3406281,32.6632515 C86.2457109,32.9352529 86.1097123,33.1675839 85.9326281,33.3602515 C85.7555438,33.5529192 85.5402127,33.7009593 85.2866281,33.8043765 C85.0330435,33.9077937 84.7490046,33.9595015 84.4345031,33.9595015 C84.1200015,33.9595015 83.8359627,33.9077937 83.5823781,33.8043765 C83.3287935,33.7009593 83.1127539,33.5529192 82.9342531,33.3602515 C82.7557522,33.1675839 82.6183369,32.9352529 82.5220031,32.6632515 C82.4256692,32.3912502 82.3775031,32.0852532 82.3775031,31.7452515 C82.3775031,31.4080832 82.4256692,31.1027946 82.5220031,30.8293765 C82.6183369,30.5559585 82.7557522,30.3229192 82.9342531,30.1302515 C83.1127539,29.9375839 83.3287935,29.7888354 83.5823781,29.6840015 C83.8359627,29.5791677 84.1200015,29.5267515 84.4345031,29.5267515 Z M84.4345031,33.3687515 C84.8595052,33.3687515 85.1768353,33.2263779 85.3865031,32.9416265 C85.5961708,32.6568751 85.7010031,32.2595041 85.7010031,31.7495015 C85.7010031,31.2366656 85.5961708,30.8371696 85.3865031,30.5510015 C85.1768353,30.2648334 84.8595052,30.1217515 84.4345031,30.1217515 C84.2191686,30.1217515 84.0321705,30.1585845 83.8735031,30.2322515 C83.7148356,30.3059186 83.5823786,30.4121675 83.4761281,30.5510015 C83.3698775,30.6898356 83.290545,30.8605422 83.2381281,31.0631265 C83.1857111,31.2657109 83.1595031,31.4945003 83.1595031,31.7495015 C83.1595031,32.0045028 83.1857111,32.2325839 83.2381281,32.4337515 C83.290545,32.6349192 83.3698775,32.8042092 83.4761281,32.9416265 C83.5823786,33.0790439 83.7148356,33.1845845 83.8735031,33.2582515 C84.0321705,33.3319186 84.2191686,33.3687515 84.4345031,33.3687515 Z M87.4180031,33.9000015 L87.4180031,29.5947515 L87.8685031,29.5947515 C87.9761703,29.5947515 88.0441696,29.6471677 88.0725031,29.7520015 L88.1277531,30.1940015 C88.2864205,29.9985005 88.4642104,29.8384188 88.6611281,29.7137515 C88.8580457,29.5890842 89.0868351,29.5267515 89.3475031,29.5267515 C89.6393378,29.5267515 89.8752105,29.6075007 90.0551281,29.7690015 C90.2350456,29.9305023 90.3646693,30.1486668 90.4440031,30.4235015 C90.5035033,30.2676674 90.5821276,30.1330854 90.6798781,30.0197515 C90.7776285,29.9064176 90.8874191,29.8129186 91.0092531,29.7392515 C91.131087,29.6655845 91.2607107,29.6117517 91.3981281,29.5777515 C91.5355454,29.5437514 91.6750857,29.5267515 91.8167531,29.5267515 C92.0434209,29.5267515 92.2452938,29.5628762 92.4223781,29.6351265 C92.5994623,29.7073769 92.7496274,29.8129175 92.8728781,29.9517515 C92.9961287,30.0905856 93.0903361,30.2612922 93.1555031,30.4638765 C93.22067,30.6664609 93.2532531,30.8980836 93.2532531,31.1587515 L93.2532531,33.9000015 L92.4967531,33.9000015 L92.4967531,31.1587515 C92.4967531,30.8215832 92.4230871,30.5658774 92.2757531,30.3916265 C92.128419,30.2173757 91.9145045,30.1302515 91.6340031,30.1302515 C91.5093358,30.1302515 91.3910453,30.1522096 91.2791281,30.1961265 C91.1672108,30.2400434 91.0687535,30.3045011 90.9837531,30.3895015 C90.8987526,30.474502 90.8314616,30.5814592 90.7818781,30.7103765 C90.7322945,30.8392938 90.7075031,30.9887507 90.7075031,31.1587515 L90.7075031,33.9000015 L89.9510031,33.9000015 L89.9510031,31.1587515 C89.9510031,30.8130831 89.8815871,30.5552524 89.7427531,30.3852515 C89.603919,30.2152507 89.4013377,30.1302515 89.1350031,30.1302515 C88.9480021,30.1302515 88.7744622,30.1805427 88.6143781,30.2811265 C88.4542939,30.3817104 88.3076704,30.5184173 88.1745031,30.6912515 L88.1745031,33.9000015 L87.4180031,33.9000015 Z" id=".com" fill="#F0830A"></path>
                </g>
            </g>
        </g>
    </g>
</svg>