<?xml version="1.0" encoding="UTF-8"?>
<svg width="12px" height="9px" viewBox="0 0 12 9" version="1.1" xmlns="http://www.w3.org/2000/svg" xmlns:xlink="http://www.w3.org/1999/xlink">
    <!-- Generator: Sketch 51.1 (57501) - http://www.bohemiancoding.com/sketch -->
    <title>Shape</title>
    <desc>Created with Sketch.</desc>
    <defs></defs>
    <g id="Page-1" stroke="none" stroke-width="1" fill="none" fill-rule="evenodd">
        <g id="Desktop-HD" transform="translate(-541.000000, -2438.000000)" fill="#E6C685">
            <path d="M551.959036,2438 C551.698795,2438 551.453012,2438.10678 551.26506,2438.28983 L545.568675,2444.43729 L542.648193,2441.27966 C542.431325,2441.08136 542.214458,2440.98983 541.968675,2440.98983 C541.433735,2440.98983 541,2441.46271 541,2442.02712 C541,2442.30169 541.101205,2442.56102 541.274699,2442.74407 L544.889157,2446.6339 C545.106024,2446.8322 545.322892,2446.92373 545.568675,2446.92373 C545.828916,2446.92373 546.074699,2446.81695 546.262651,2446.6339 L552.638554,2439.76949 C552.79759,2439.60169 552.913253,2439.34237 552.942169,2439.05254 C552.927711,2438.45763 552.493976,2438 551.959036,2438 Z" id="Shape"></path>
        </g>
    </g>
</svg>