<?xml version="1.0" encoding="utf-8"?>
<!-- Generator: Adobe Illustrator 16.0.0, SVG Export Plug-In . SVG Version: 6.00 Build 0)  -->
<!DOCTYPE svg PUBLIC "-//W3C//DTD SVG 1.1//EN" "http://www.w3.org/Graphics/SVG/1.1/DTD/svg11.dtd">
<svg version="1.1" xmlns="http://www.w3.org/2000/svg" xmlns:xlink="http://www.w3.org/1999/xlink" x="0px" y="0px" width="90px"
	 height="90px" viewBox="0 0 90 90" enable-background="new 0 0 90 90" xml:space="preserve">
<g id="Layer_4" display="none">
	<rect x="-5" y="22.329" display="inline" fill="#BB3D26" width="96.94" height="48.405"/>
</g>
<g id="Layer_5" display="none">
	<g display="inline">
		<g>
			<path fill="none" stroke="#333333" stroke-width="2" stroke-linecap="round" stroke-linejoin="round" stroke-miterlimit="10" d="
				M57.096,42.744l-17.19-10.711c-0.396-0.247-0.917-0.125-1.163,0.27L26.245,52.361c-0.153,0.247-0.17,0.556-0.043,0.814
				c0.126,0.261,0.378,0.439,0.667,0.47l10.76,1.193l5.815,9.134c0.065,0.108,0.158,0.196,0.263,0.263
				c0.135,0.082,0.289,0.128,0.451,0.127c0.289,0,0.558-0.15,0.713-0.396l12.498-20.058C57.613,43.512,57.493,42.993,57.096,42.744z
				 M44.145,61.935l-5.31-8.344c-0.068-0.107-0.159-0.197-0.265-0.263s-0.227-0.108-0.354-0.122l-9.83-1.09l11.343-18.205
				l7.163,4.463L39.75,49.838c-0.246,0.394-0.125,0.917,0.27,1.164c0.396,0.245,0.917,0.123,1.162-0.271l7.144-11.464l7.161,4.463
				L44.145,61.935z M42.13,65.729l-7.081,1.069l-7.092-4.418c-0.037-0.023-0.078-0.027-0.118-0.045l-2.2-6.399
				c-0.151-0.44-0.631-0.673-1.074-0.522c-0.44,0.149-0.675,0.63-0.524,1.073l4.244,12.34c0.066,0.188,0.192,0.341,0.353,0.44
				c0.166,0.104,0.369,0.148,0.571,0.119l13.171-1.987c0.463-0.069,0.778-0.499,0.71-0.959C43.02,65.978,42.589,65.66,42.13,65.729z
				 M29.655,67.612l-0.958-2.783l3.781,2.356L29.655,67.612z M58.602,29.76L50.9,24.961c-3.012-1.876-6.989-0.953-8.865,2.059
				l-1.507,2.419c-0.247,0.396-0.125,0.915,0.271,1.162l17.19,10.711c0.399,0.249,0.918,0.127,1.164-0.268l1.507-2.419
				C62.537,35.613,61.613,31.637,58.602,29.76z M59.227,37.731l-1.062,1.702l-15.758-9.819l1.061-1.703
				c1.384-2.221,4.318-2.904,6.541-1.518l7.701,4.798C59.929,32.576,60.61,35.51,59.227,37.731z"/>
		</g>
	</g>
</g>
<g id="Layer_6" display="none">
	<g display="inline">
		<g>
			<path fill="none" stroke="#818181" stroke-width="3" stroke-linecap="round" stroke-linejoin="round" stroke-miterlimit="10" d="
				M44.76,41.517c3.444-1.217,5.909-4.501,5.909-8.359c0-4.894-3.968-8.865-8.864-8.865c-4.894,0-8.865,3.971-8.865,8.865
				c0,3.857,2.465,7.14,5.907,8.358"/>
			<g>
				
					<path fill="none" stroke="#333333" stroke-width="3" stroke-linecap="round" stroke-linejoin="round" stroke-miterlimit="10" d="
					M44.759,51.872V33.158c0-1.631-1.322-2.955-2.955-2.955c-1.631,0-2.955,1.324-2.955,2.955v23.399l-4.806-3.818
					c-1.153-1.154-3.025-1.154-4.179,0c-1.153,1.152-1.153,3.023,0,4.178"/>
			</g>
		</g>
		<g>
			<path fill="none" stroke="#333333" stroke-width="3" stroke-linecap="round" stroke-linejoin="round" stroke-miterlimit="10" d="
				M29.865,56.916l5.134,9.193c1.073,1.921,3.75,3.492,5.951,3.492h10.644c2.2,0,4.267-1.78,4.594-3.956l1.768-11.787
				c0.327-2.176-1.166-4.333-3.317-4.794l-9.878-2.117"/>
		</g>
	</g>
</g>
<g id="Layer_7" display="none">
	
		<path display="inline" fill="none" stroke="#333333" stroke-width="2" stroke-linecap="round" stroke-linejoin="round" stroke-miterlimit="10" d="
		M63.185,32.83l-14.31-8.276c-0.965-0.558-2.037-0.836-3.112-0.836c-1.073,0-2.145,0.279-3.108,0.836l-14.31,8.276
		c-1.954,1.131-3.159,3.233-3.159,5.51v16.441c0,2.277,1.205,4.381,3.159,5.511l14.31,8.277c0.963,0.556,2.036,0.836,3.108,0.836
		c1.075,0,2.147-0.28,3.112-0.836l14.31-8.277c1.951-1.13,3.156-3.233,3.156-5.511V38.34C66.341,36.063,65.136,33.961,63.185,32.83z
		 M48.124,67.24c-0.719,0.415-1.533,0.634-2.361,0.634c-0.826,0-1.642-0.219-2.359-0.634l-11.788-6.819
		c1.125-1.108,2.676-1.941,3.952-2.054c0.666-0.058,1.651-0.307,2.695-0.571c0.406-0.103,0.815-0.207,1.204-0.298
		c1.556-0.365,2.589-0.762,3.07-1.175c0.174-0.147,0.271-0.368,0.268-0.598c-0.019-0.864-0.318-1.706-0.867-2.446
		c-0.051-0.103-0.124-0.194-0.215-0.264c-2.24-1.736-3.578-4.716-3.578-7.97c0-5.189,3.432-9.41,7.651-9.41
		c4.22,0,7.652,4.217,7.652,9.401c0,3.246-1.338,6.222-3.578,7.956c-0.049,0.038-0.097,0.088-0.135,0.137
		c-0.61,0.777-0.929,1.622-0.947,2.507c-0.004,0.227,0.093,0.448,0.264,0.598c0.381,0.329,1.405,0.693,3.043,1.082
		c1.363,0.323,2.988,0.613,3.866,0.69c1.383,0.121,3.229,0.896,4.385,2.165L48.124,67.24z M64.829,54.781
		c0,1.724-0.918,3.327-2.396,4.181l-0.762,0.44c-1.46-1.787-3.861-2.77-5.582-2.92c-0.815-0.072-2.35-0.347-3.65-0.657
		c-1.137-0.269-1.762-0.479-2.085-0.606c0.079-0.354,0.246-0.705,0.511-1.07c2.565-2.03,4.095-5.429,4.095-9.111
		c0-6.028-4.112-10.932-9.165-10.932c-5.053,0-9.164,4.908-9.164,10.94c0,3.668,1.511,7.053,4.049,9.089
		c0.292,0.375,0.483,0.785,0.565,1.202c-0.324,0.156-0.953,0.395-2.122,0.671c-0.396,0.091-0.813,0.198-1.229,0.303
		c-0.94,0.238-1.912,0.484-2.458,0.532c-1.743,0.153-3.809,1.266-5.196,2.783l-1.146-0.664c-1.479-0.854-2.396-2.457-2.396-4.181
		V38.34c0-1.724,0.918-3.325,2.396-4.18l14.309-8.277c0.717-0.416,1.533-0.635,2.359-0.635c0.828,0,1.642,0.22,2.361,0.635
		l14.31,8.277c1.478,0.855,2.396,2.457,2.396,4.18V54.781z"/>
</g>
<g id="Layer_8" display="none">
	<g display="inline">
		<path fill="none" stroke="#818181" stroke-width="3" stroke-linecap="round" stroke-linejoin="round" stroke-miterlimit="10" d="
			M41.846,64.074c-5.743,0-10.416-4.673-10.416-10.416c0-5.744,4.673-10.416,10.416-10.416c5.745,0,10.417,4.672,10.417,10.416
			C52.263,59.401,47.591,64.074,41.846,64.074z"/>
		<g>
			<g>
				
					<line fill="none" stroke="#818181" stroke-width="3" stroke-linecap="round" stroke-linejoin="round" stroke-miterlimit="10" x1="45.23" y1="50.43" x2="42.839" y2="52.822"/>
			</g>
			<g>
				
					<line fill="none" stroke="#818181" stroke-width="3" stroke-linecap="round" stroke-linejoin="round" stroke-miterlimit="10" x1="41.846" y1="46.592" x2="41.846" y2="52.274"/>
			</g>
			
				<circle fill="none" stroke="#333333" stroke-width="3" stroke-linecap="round" stroke-linejoin="round" stroke-miterlimit="10" cx="41.846" cy="53.658" r="1.096"/>
		</g>
	</g>
	<g display="inline">
		<path fill="none" stroke="#333333" stroke-width="3" stroke-linecap="round" stroke-linejoin="round" stroke-miterlimit="10" d="
			M66.621,44.542V34.66c0-2.416-1.976-4.392-4.393-4.392h-5.951"/>
		<path fill="none" stroke="#333333" stroke-width="3" stroke-linecap="round" stroke-linejoin="round" stroke-miterlimit="10" d="
			M36.095,30.269h-13.39c-2.416,0-4.392,1.976-4.392,4.392v30.743c0,2.413,1.976,4.391,4.392,4.391h39.524
			c2.417,0,4.393-1.978,4.393-4.391v-9.883"/>
		<path fill="none" stroke="#818181" stroke-width="3" stroke-linecap="round" stroke-linejoin="round" stroke-miterlimit="10" d="
			M60.034,36.513l-6.402-10.641c-1.208-2.09-3.909-2.814-6-1.606L25.321,36.513"/>
		
			<line fill="none" stroke="#333333" stroke-width="3" stroke-linecap="round" stroke-linejoin="round" stroke-miterlimit="10" x1="22.705" y1="36.855" x2="62.229" y2="36.855"/>
		<path fill="none" stroke="#333333" stroke-width="3" stroke-linecap="round" stroke-linejoin="round" stroke-miterlimit="10" d="
			M68.817,55.521h-6.589c-3.035,0-5.491-2.458-5.491-5.489c0-3.032,2.456-5.489,5.491-5.489h6.589V55.521z"/>
	</g>
</g>
<g id="Layer_9">
	<g>
		<path fill="none" stroke="#818181" stroke-width="3" stroke-linecap="round" stroke-linejoin="round" stroke-miterlimit="10" d="
			M60,64.602h3c2.199,0,4-1.801,4-4v-30c0-2.2-1.801-4-4-4h-3"/>
		<path fill="none" stroke="#818181" stroke-width="3" stroke-linecap="round" stroke-linejoin="round" stroke-miterlimit="10" d="
			M28,26.601h-3c-2.201,0-4,1.8-4,4v30c0,2.199,1.799,4,4,4h3"/>
		<g>
			<path fill="none" stroke="#333333" stroke-width="3" stroke-linecap="round" stroke-linejoin="round" stroke-miterlimit="10" d="
				M33,22.601c-2.2,0-4,1.8-4,4v38c0,2.199,1.8,4,4,4h22c2.2,0,4-1.801,4-4v-38c0-2.2-1.8-4-4-4H33z"/>
			<g>
				
					<line fill="none" stroke="#333333" stroke-width="3" stroke-linecap="round" stroke-linejoin="round" stroke-miterlimit="10" x1="59" y1="28.601" x2="29" y2="28.601"/>
			</g>
			<g>
				
					<line fill="none" stroke="#333333" stroke-width="3" stroke-linecap="round" stroke-linejoin="round" stroke-miterlimit="10" x1="59" y1="56.602" x2="29" y2="56.602"/>
			</g>
			
				<circle fill="none" stroke="#818181" stroke-width="3" stroke-linecap="round" stroke-linejoin="round" stroke-miterlimit="10" cx="44" cy="62.602" r="2"/>
		</g>
	</g>
</g>
<g id="Layer_1" display="none">
	<g display="inline">
		<g>
			
				<line fill="none" stroke="#818181" stroke-width="3" stroke-linecap="round" stroke-linejoin="round" stroke-miterlimit="10" x1="12.167" y1="55.434" x2="55.231" y2="55.434"/>
			<path fill="none" stroke="#333333" stroke-width="3" stroke-linecap="round" stroke-linejoin="round" stroke-miterlimit="10" d="
				M38.231,62.232c-3.754,0-6.8,3.047-6.8,6.801h6.833"/>
			<path fill="none" stroke="#333333" stroke-width="3" stroke-linecap="round" stroke-linejoin="round" stroke-miterlimit="10" d="
				M39.396,62.232c3.755,0,6.801,3.047,6.801,6.801h-6.831"/>
			<path fill="none" stroke="#333333" stroke-width="3" stroke-linecap="round" stroke-linejoin="round" stroke-miterlimit="10" d="
				M64.298,28.232L64.298,28.232c0-2.494-2.038-4.533-4.533-4.533H16.7c-2.494,0-4.533,2.04-4.533,4.533v29.467
				c0,2.492,2.039,4.533,4.533,4.533h37.398"/>
		</g>
		<g>
			<path fill="none" stroke="#333333" stroke-width="3" stroke-linecap="round" stroke-linejoin="round" stroke-miterlimit="10" d="
				M59.765,28.232c-2.492,0-4.533,2.04-4.533,4.533V64.5c0,2.492,2.041,4.533,4.533,4.533h15.867c2.492,0,4.533-2.041,4.533-4.533
				V32.766c0-2.494-2.041-4.533-4.533-4.533H59.765z"/>
			
				<line fill="none" stroke="#333333" stroke-width="3" stroke-linecap="round" stroke-linejoin="round" stroke-miterlimit="10" x1="80.165" y1="35.032" x2="55.231" y2="35.032"/>
			
				<line fill="none" stroke="#333333" stroke-width="3" stroke-linecap="round" stroke-linejoin="round" stroke-miterlimit="10" x1="80.165" y1="55.434" x2="55.231" y2="55.434"/>
			
				<circle fill="none" stroke="#818181" stroke-width="3" stroke-linecap="round" stroke-linejoin="round" stroke-miterlimit="10" cx="67.698" cy="62.232" r="2.267"/>
		</g>
	</g>
</g>
<g id="Layer_3" display="none">
	<g display="inline">
		<g>
			<g>
				
					<ellipse fill="none" stroke="#333333" stroke-width="3" stroke-linecap="round" stroke-linejoin="round" stroke-miterlimit="10" cx="38.735" cy="40.663" rx="17.156" ry="16.964"/>
			</g>
		</g>
		<path fill="none" stroke="#333333" stroke-width="3" stroke-linecap="round" stroke-linejoin="round" stroke-miterlimit="10" d="
			M62.464,68.662c1.267,1.253,3.32,1.251,4.587,0c1.266-1.253,1.267-3.282,0-4.535l-7.643-7.559c-1.267-1.25-3.32-1.25-4.587,0
			c-1.266,1.254-1.266,3.284,0,4.536L62.464,68.662z"/>
		
			<line fill="none" stroke="#333333" stroke-width="3" stroke-linecap="round" stroke-linejoin="round" stroke-miterlimit="10" x1="54.821" y1="56.568" x2="50.844" y2="52.638"/>
	</g>
	<g display="inline">
		<path fill="none" stroke="#333333" stroke-width="3" stroke-linecap="round" stroke-linejoin="round" stroke-miterlimit="10" d="
			M29.948,54.561c0.75-0.811,1.671-1.447,2.499-1.674c0.562-0.157,1.367-0.527,2.223-0.921c0.334-0.154,0.67-0.309,0.988-0.446
			c1.282-0.564,2.105-1.069,2.451-1.499c0.124-0.154,0.173-0.357,0.134-0.556c-0.152-0.74-0.543-1.415-1.132-1.963
			c-0.059-0.08-0.137-0.148-0.227-0.193c-2.201-1.137-3.824-3.484-4.341-6.281c-0.824-4.458,1.452-8.63,5.077-9.3
			c3.623-0.67,7.243,2.408,8.066,6.864c0.517,2.789-0.16,5.558-1.809,7.403c-0.037,0.042-0.07,0.091-0.094,0.141
			c-0.4,0.764-0.54,1.54-0.413,2.303c0.031,0.2,0.149,0.371,0.319,0.471c0.38,0.223,1.318,0.374,2.787,0.446
			c1.223,0.062,2.665,0.055,3.431-0.021c0.87-0.081,2.122,0.114,3.232,0.655c-2.586,3.443-6.381,5.97-10.91,6.808
			C37.838,57.608,33.527,56.697,29.948,54.561z"/>
	</g>
</g>
<g id="Layer_2" display="none">
	<g display="inline">
		<g>
			<path fill="none" stroke="#333333" stroke-width="2" stroke-linecap="round" stroke-linejoin="round" stroke-miterlimit="10" d="
				M48.437,38.418c-0.296-0.295-0.774-0.295-1.071,0l-3.206,3.193l-3.536-3.523c-0.296-0.295-0.775-0.295-1.072,0l-3.883,3.868
				c-0.296,0.295-0.296,0.773,0,1.068c0.295,0.294,0.775,0.294,1.071,0l3.347-3.335l3.537,3.524c0.148,0.147,0.342,0.22,0.535,0.22
				c0.195,0,0.389-0.073,0.536-0.22l3.207-3.193l2.872,2.862c0.298,0.295,0.776,0.295,1.073,0c0.296-0.294,0.296-0.772,0-1.067
				L48.437,38.418z M43.568,22.49c-0.576,0-1.16,0.032-1.75,0.096c-7.028,0.775-12.734,6.474-13.5,13.476
				c-0.581,5.309,1.58,10.135,5.241,13.274c1.149,0.985,1.863,2.38,1.863,3.893v1.289c0,1.133,0.5,2.144,1.281,2.853
				c-0.829,0.453-1.399,1.32-1.399,2.329c0,0.752,0.316,1.431,0.821,1.917c-0.504,0.485-0.821,1.163-0.821,1.916
				c0,1.473,1.203,2.67,2.682,2.67h1.21c0.222,2.146,2.027,3.832,4.24,3.832h0.642c2.212,0,4.019-1.686,4.241-3.832h1.21
				c1.479,0,2.681-1.197,2.681-2.67c0-0.753-0.316-1.431-0.819-1.916c0.503-0.486,0.819-1.165,0.819-1.917
				c0-1.009-0.568-1.876-1.397-2.329c0.78-0.709,1.28-1.72,1.28-2.853v-1.603c0-1.466,0.671-2.824,1.762-3.806
				c3.104-2.798,5.057-6.839,5.057-11.337C58.911,29.332,52.041,22.49,43.568,22.49z M44.079,68.526h-0.642
				c-1.377,0-2.524-1.009-2.734-2.323h6.111C46.604,67.518,45.457,68.526,44.079,68.526z M49.529,64.693H37.986
				c-0.642,0-1.167-0.52-1.167-1.16s0.524-1.16,1.167-1.16h11.543c0.645,0,1.166,0.52,1.166,1.16S50.174,64.693,49.529,64.693z
				 M49.529,60.862H37.986c-0.642,0-1.167-0.521-1.167-1.162s0.524-1.162,1.167-1.162h11.543c0.645,0,1.166,0.521,1.166,1.162
				S50.174,60.862,49.529,60.862z M52.838,47.988c-1.437,1.295-2.26,3.09-2.26,4.928v1.603c0,1.3-1.063,2.357-2.369,2.357h-8.903
				c-1.306,0-2.368-1.058-2.368-2.357v-1.289c0-1.898-0.872-3.733-2.39-5.038c-3.504-3.005-5.226-7.367-4.724-11.966
				c0.692-6.333,5.806-11.438,12.16-12.139C42.512,24.029,43.044,24,43.568,24c7.625,0,13.829,6.179,13.829,13.774
				C57.396,41.658,55.734,45.381,52.838,47.988z"/>
		</g>
	</g>
</g>
</svg>
