<?xml version="1.0" encoding="utf-8"?>
<!-- Generator: Adobe Illustrator 16.0.0, SVG Export Plug-In . SVG Version: 6.00 Build 0)  -->
<!DOCTYPE svg PUBLIC "-//W3C//DTD SVG 1.1//EN" "http://www.w3.org/Graphics/SVG/1.1/DTD/svg11.dtd">
<svg version="1.1" xmlns="http://www.w3.org/2000/svg" xmlns:xlink="http://www.w3.org/1999/xlink" x="0px" y="0px" width="90px"
	 height="90px" viewBox="0 0 90 90" enable-background="new 0 0 90 90" xml:space="preserve">
<g id="Layer_1">
	<g>
		<g>
			
				<line fill="none" stroke="#818181" stroke-width="3" stroke-linecap="round" stroke-linejoin="round" stroke-miterlimit="10" x1="12.167" y1="55.434" x2="55.231" y2="55.434"/>
			<path fill="none" stroke="#333333" stroke-width="3" stroke-linecap="round" stroke-linejoin="round" stroke-miterlimit="10" d="
				M38.231,62.232c-3.754,0-6.8,3.047-6.8,6.801h6.833"/>
			<path fill="none" stroke="#333333" stroke-width="3" stroke-linecap="round" stroke-linejoin="round" stroke-miterlimit="10" d="
				M39.396,62.232c3.755,0,6.801,3.047,6.801,6.801h-6.831"/>
			<path fill="none" stroke="#333333" stroke-width="3" stroke-linecap="round" stroke-linejoin="round" stroke-miterlimit="10" d="
				M64.298,28.232L64.298,28.232c0-2.494-2.038-4.533-4.533-4.533H16.7c-2.494,0-4.533,2.04-4.533,4.533v29.467
				c0,2.492,2.039,4.533,4.533,4.533h37.398"/>
		</g>
		<g>
			<path fill="none" stroke="#333333" stroke-width="3" stroke-linecap="round" stroke-linejoin="round" stroke-miterlimit="10" d="
				M59.765,28.232c-2.492,0-4.533,2.04-4.533,4.533V64.5c0,2.492,2.041,4.533,4.533,4.533h15.867c2.492,0,4.533-2.041,4.533-4.533
				V32.766c0-2.494-2.041-4.533-4.533-4.533H59.765z"/>
			
				<line fill="none" stroke="#333333" stroke-width="3" stroke-linecap="round" stroke-linejoin="round" stroke-miterlimit="10" x1="80.165" y1="35.032" x2="55.231" y2="35.032"/>
			
				<line fill="none" stroke="#333333" stroke-width="3" stroke-linecap="round" stroke-linejoin="round" stroke-miterlimit="10" x1="80.165" y1="55.434" x2="55.231" y2="55.434"/>
			
				<circle fill="none" stroke="#818181" stroke-width="3" stroke-linecap="round" stroke-linejoin="round" stroke-miterlimit="10" cx="67.698" cy="62.232" r="2.267"/>
		</g>
	</g>
</g>
<g id="Layer_2" display="none">
	<g display="inline">
		<g>
			<path fill="none" stroke="#333333" stroke-width="2" stroke-linecap="round" stroke-linejoin="round" stroke-miterlimit="10" d="
				M48.437,38.418c-0.296-0.295-0.774-0.295-1.071,0l-3.206,3.193l-3.536-3.523c-0.296-0.295-0.775-0.295-1.072,0l-3.883,3.868
				c-0.296,0.295-0.296,0.773,0,1.068c0.295,0.294,0.775,0.294,1.071,0l3.347-3.335l3.537,3.524c0.148,0.147,0.342,0.22,0.535,0.22
				c0.195,0,0.389-0.073,0.536-0.22l3.207-3.193l2.872,2.862c0.298,0.295,0.776,0.295,1.073,0c0.296-0.294,0.296-0.772,0-1.067
				L48.437,38.418z M43.568,22.49c-0.576,0-1.16,0.032-1.75,0.096c-7.028,0.775-12.734,6.474-13.5,13.476
				c-0.581,5.309,1.58,10.135,5.241,13.274c1.149,0.985,1.863,2.38,1.863,3.893v1.289c0,1.133,0.5,2.144,1.281,2.853
				c-0.829,0.453-1.399,1.32-1.399,2.329c0,0.752,0.316,1.431,0.821,1.917c-0.504,0.485-0.821,1.163-0.821,1.916
				c0,1.473,1.203,2.67,2.682,2.67h1.21c0.222,2.146,2.027,3.832,4.24,3.832h0.642c2.212,0,4.019-1.686,4.241-3.832h1.21
				c1.479,0,2.681-1.197,2.681-2.67c0-0.753-0.316-1.431-0.819-1.916c0.503-0.486,0.819-1.165,0.819-1.917
				c0-1.009-0.568-1.876-1.397-2.329c0.78-0.709,1.28-1.72,1.28-2.853v-1.603c0-1.466,0.671-2.824,1.762-3.806
				c3.104-2.798,5.057-6.839,5.057-11.337C58.911,29.332,52.041,22.49,43.568,22.49z M44.079,68.526h-0.642
				c-1.377,0-2.524-1.009-2.734-2.323h6.111C46.604,67.518,45.457,68.526,44.079,68.526z M49.529,64.693H37.986
				c-0.642,0-1.167-0.52-1.167-1.16s0.524-1.16,1.167-1.16h11.543c0.645,0,1.166,0.52,1.166,1.16S50.174,64.693,49.529,64.693z
				 M49.529,60.862H37.986c-0.642,0-1.167-0.521-1.167-1.162s0.524-1.162,1.167-1.162h11.543c0.645,0,1.166,0.521,1.166,1.162
				S50.174,60.862,49.529,60.862z M52.838,47.988c-1.437,1.295-2.26,3.09-2.26,4.928v1.603c0,1.3-1.063,2.357-2.369,2.357h-8.903
				c-1.306,0-2.368-1.058-2.368-2.357v-1.289c0-1.898-0.872-3.733-2.39-5.038c-3.504-3.005-5.226-7.367-4.724-11.966
				c0.692-6.333,5.806-11.438,12.16-12.139C42.512,24.029,43.044,24,43.568,24c7.625,0,13.829,6.179,13.829,13.774
				C57.396,41.658,55.734,45.381,52.838,47.988z"/>
		</g>
	</g>
</g>
</svg>
